<mxfile host="app.diagrams.net" agent="Mozilla/5.0 (Windows NT 10.0; Win64; x64) AppleWebKit/537.36 (KHTML, like Gecko) Chrome/132.0.0.0 Safari/537.36 OPR/117.0.0.0" version="26.2.10">
  <diagram name="1 oldal" id="yQ_z3RYVIX_M2i8i6XrE">
    <mxGraphModel grid="1" page="1" gridSize="10" guides="1" tooltips="1" connect="1" arrows="1" fold="1" pageScale="1" pageWidth="520" pageHeight="100" math="0" shadow="0">
      <root>
        <mxCell id="0" />
        <mxCell id="1" parent="0" />
        <mxCell id="o9leCK19e-JIHgQ2QXZz-18" value="Tulajdonos" style="shape=table;startSize=30;container=1;collapsible=0;childLayout=tableLayout;strokeColor=default;fontSize=16;fontStyle=1" vertex="1" parent="1">
          <mxGeometry x="-480" y="530" width="440" height="197" as="geometry" />
        </mxCell>
        <mxCell id="o9leCK19e-JIHgQ2QXZz-19" value="" style="shape=tableRow;horizontal=0;startSize=0;swimlaneHead=0;swimlaneBody=0;strokeColor=inherit;top=0;left=0;bottom=0;right=0;collapsible=0;dropTarget=0;fillColor=none;points=[[0,0.5],[1,0.5]];portConstraint=eastwest;fontSize=16;" vertex="1" parent="o9leCK19e-JIHgQ2QXZz-18">
          <mxGeometry y="30" width="440" height="42" as="geometry" />
        </mxCell>
        <mxCell id="o9leCK19e-JIHgQ2QXZz-20" value="Attribútum" style="shape=partialRectangle;html=1;whiteSpace=wrap;connectable=0;strokeColor=inherit;overflow=hidden;fillColor=none;top=0;left=0;bottom=0;right=0;pointerEvents=1;fontSize=16;" vertex="1" parent="o9leCK19e-JIHgQ2QXZz-19">
          <mxGeometry width="148" height="42" as="geometry">
            <mxRectangle width="148" height="42" as="alternateBounds" />
          </mxGeometry>
        </mxCell>
        <mxCell id="o9leCK19e-JIHgQ2QXZz-21" value="Adattípus" style="shape=partialRectangle;html=1;whiteSpace=wrap;connectable=0;strokeColor=inherit;overflow=hidden;fillColor=none;top=0;left=0;bottom=0;right=0;pointerEvents=1;fontSize=16;" vertex="1" parent="o9leCK19e-JIHgQ2QXZz-19">
          <mxGeometry x="148" width="144" height="42" as="geometry">
            <mxRectangle width="144" height="42" as="alternateBounds" />
          </mxGeometry>
        </mxCell>
        <mxCell id="o9leCK19e-JIHgQ2QXZz-22" value="Integritási feltétel" style="shape=partialRectangle;html=1;whiteSpace=wrap;connectable=0;strokeColor=inherit;overflow=hidden;fillColor=none;top=0;left=0;bottom=0;right=0;pointerEvents=1;fontSize=16;" vertex="1" parent="o9leCK19e-JIHgQ2QXZz-19">
          <mxGeometry x="292" width="148" height="42" as="geometry">
            <mxRectangle width="148" height="42" as="alternateBounds" />
          </mxGeometry>
        </mxCell>
        <mxCell id="o9leCK19e-JIHgQ2QXZz-23" value="" style="shape=tableRow;horizontal=0;startSize=0;swimlaneHead=0;swimlaneBody=0;strokeColor=inherit;top=0;left=0;bottom=0;right=0;collapsible=0;dropTarget=0;fillColor=none;points=[[0,0.5],[1,0.5]];portConstraint=eastwest;fontSize=16;" vertex="1" parent="o9leCK19e-JIHgQ2QXZz-18">
          <mxGeometry y="72" width="440" height="42" as="geometry" />
        </mxCell>
        <mxCell id="o9leCK19e-JIHgQ2QXZz-24" value="&lt;u&gt;Tkod&lt;/u&gt;" style="shape=partialRectangle;html=1;whiteSpace=wrap;connectable=0;strokeColor=inherit;overflow=hidden;fillColor=none;top=0;left=0;bottom=0;right=0;pointerEvents=1;fontSize=16;" vertex="1" parent="o9leCK19e-JIHgQ2QXZz-23">
          <mxGeometry width="148" height="42" as="geometry">
            <mxRectangle width="148" height="42" as="alternateBounds" />
          </mxGeometry>
        </mxCell>
        <mxCell id="o9leCK19e-JIHgQ2QXZz-25" value="INT" style="shape=partialRectangle;html=1;whiteSpace=wrap;connectable=0;strokeColor=inherit;overflow=hidden;fillColor=none;top=0;left=0;bottom=0;right=0;pointerEvents=1;fontSize=16;" vertex="1" parent="o9leCK19e-JIHgQ2QXZz-23">
          <mxGeometry x="148" width="144" height="42" as="geometry">
            <mxRectangle width="144" height="42" as="alternateBounds" />
          </mxGeometry>
        </mxCell>
        <mxCell id="o9leCK19e-JIHgQ2QXZz-26" value="&lt;span style=&quot;&quot; data-end=&quot;529&quot; data-start=&quot;514&quot;&gt;PRIMARY KEY&lt;/span&gt;, NOT NULL" style="shape=partialRectangle;html=1;whiteSpace=wrap;connectable=0;strokeColor=inherit;overflow=hidden;fillColor=none;top=0;left=0;bottom=0;right=0;pointerEvents=1;fontSize=16;" vertex="1" parent="o9leCK19e-JIHgQ2QXZz-23">
          <mxGeometry x="292" width="148" height="42" as="geometry">
            <mxRectangle width="148" height="42" as="alternateBounds" />
          </mxGeometry>
        </mxCell>
        <mxCell id="o9leCK19e-JIHgQ2QXZz-27" value="" style="shape=tableRow;horizontal=0;startSize=0;swimlaneHead=0;swimlaneBody=0;strokeColor=inherit;top=0;left=0;bottom=0;right=0;collapsible=0;dropTarget=0;fillColor=none;points=[[0,0.5],[1,0.5]];portConstraint=eastwest;fontSize=16;" vertex="1" parent="o9leCK19e-JIHgQ2QXZz-18">
          <mxGeometry y="114" width="440" height="41" as="geometry" />
        </mxCell>
        <mxCell id="o9leCK19e-JIHgQ2QXZz-28" value="Nev" style="shape=partialRectangle;html=1;whiteSpace=wrap;connectable=0;strokeColor=inherit;overflow=hidden;fillColor=none;top=0;left=0;bottom=0;right=0;pointerEvents=1;fontSize=16;" vertex="1" parent="o9leCK19e-JIHgQ2QXZz-27">
          <mxGeometry width="148" height="41" as="geometry">
            <mxRectangle width="148" height="41" as="alternateBounds" />
          </mxGeometry>
        </mxCell>
        <mxCell id="o9leCK19e-JIHgQ2QXZz-29" value="VARCHAR" style="shape=partialRectangle;html=1;whiteSpace=wrap;connectable=0;strokeColor=inherit;overflow=hidden;fillColor=none;top=0;left=0;bottom=0;right=0;pointerEvents=1;fontSize=16;" vertex="1" parent="o9leCK19e-JIHgQ2QXZz-27">
          <mxGeometry x="148" width="144" height="41" as="geometry">
            <mxRectangle width="144" height="41" as="alternateBounds" />
          </mxGeometry>
        </mxCell>
        <mxCell id="o9leCK19e-JIHgQ2QXZz-30" value="NOT NULL" style="shape=partialRectangle;html=1;whiteSpace=wrap;connectable=0;strokeColor=inherit;overflow=hidden;fillColor=none;top=0;left=0;bottom=0;right=0;pointerEvents=1;fontSize=16;" vertex="1" parent="o9leCK19e-JIHgQ2QXZz-27">
          <mxGeometry x="292" width="148" height="41" as="geometry">
            <mxRectangle width="148" height="41" as="alternateBounds" />
          </mxGeometry>
        </mxCell>
        <mxCell id="o9leCK19e-JIHgQ2QXZz-31" style="shape=tableRow;horizontal=0;startSize=0;swimlaneHead=0;swimlaneBody=0;strokeColor=inherit;top=0;left=0;bottom=0;right=0;collapsible=0;dropTarget=0;fillColor=none;points=[[0,0.5],[1,0.5]];portConstraint=eastwest;fontSize=16;" vertex="1" parent="o9leCK19e-JIHgQ2QXZz-18">
          <mxGeometry y="155" width="440" height="42" as="geometry" />
        </mxCell>
        <mxCell id="o9leCK19e-JIHgQ2QXZz-32" value="Varos" style="shape=partialRectangle;html=1;whiteSpace=wrap;connectable=0;strokeColor=inherit;overflow=hidden;fillColor=none;top=0;left=0;bottom=0;right=0;pointerEvents=1;fontSize=16;" vertex="1" parent="o9leCK19e-JIHgQ2QXZz-31">
          <mxGeometry width="148" height="42" as="geometry">
            <mxRectangle width="148" height="42" as="alternateBounds" />
          </mxGeometry>
        </mxCell>
        <mxCell id="o9leCK19e-JIHgQ2QXZz-33" value="VARCHAR" style="shape=partialRectangle;html=1;whiteSpace=wrap;connectable=0;strokeColor=inherit;overflow=hidden;fillColor=none;top=0;left=0;bottom=0;right=0;pointerEvents=1;fontSize=16;" vertex="1" parent="o9leCK19e-JIHgQ2QXZz-31">
          <mxGeometry x="148" width="144" height="42" as="geometry">
            <mxRectangle width="144" height="42" as="alternateBounds" />
          </mxGeometry>
        </mxCell>
        <mxCell id="o9leCK19e-JIHgQ2QXZz-34" value="NOT NULL" style="shape=partialRectangle;html=1;whiteSpace=wrap;connectable=0;strokeColor=inherit;overflow=hidden;fillColor=none;top=0;left=0;bottom=0;right=0;pointerEvents=1;fontSize=16;" vertex="1" parent="o9leCK19e-JIHgQ2QXZz-31">
          <mxGeometry x="292" width="148" height="42" as="geometry">
            <mxRectangle width="148" height="42" as="alternateBounds" />
          </mxGeometry>
        </mxCell>
        <mxCell id="o9leCK19e-JIHgQ2QXZz-64" value="Auto" style="shape=table;startSize=30;container=1;collapsible=0;childLayout=tableLayout;strokeColor=default;fontSize=16;fontStyle=1" vertex="1" parent="1">
          <mxGeometry x="40" y="530" width="440" height="340" as="geometry" />
        </mxCell>
        <mxCell id="o9leCK19e-JIHgQ2QXZz-65" value="" style="shape=tableRow;horizontal=0;startSize=0;swimlaneHead=0;swimlaneBody=0;strokeColor=inherit;top=0;left=0;bottom=0;right=0;collapsible=0;dropTarget=0;fillColor=none;points=[[0,0.5],[1,0.5]];portConstraint=eastwest;fontSize=16;" vertex="1" parent="o9leCK19e-JIHgQ2QXZz-64">
          <mxGeometry y="30" width="440" height="40" as="geometry" />
        </mxCell>
        <mxCell id="o9leCK19e-JIHgQ2QXZz-66" value="Attribútum" style="shape=partialRectangle;html=1;whiteSpace=wrap;connectable=0;strokeColor=inherit;overflow=hidden;fillColor=none;top=0;left=0;bottom=0;right=0;pointerEvents=1;fontSize=16;" vertex="1" parent="o9leCK19e-JIHgQ2QXZz-65">
          <mxGeometry width="150" height="40" as="geometry">
            <mxRectangle width="150" height="40" as="alternateBounds" />
          </mxGeometry>
        </mxCell>
        <mxCell id="o9leCK19e-JIHgQ2QXZz-67" value="Adattípus" style="shape=partialRectangle;html=1;whiteSpace=wrap;connectable=0;strokeColor=inherit;overflow=hidden;fillColor=none;top=0;left=0;bottom=0;right=0;pointerEvents=1;fontSize=16;" vertex="1" parent="o9leCK19e-JIHgQ2QXZz-65">
          <mxGeometry x="150" width="149" height="40" as="geometry">
            <mxRectangle width="149" height="40" as="alternateBounds" />
          </mxGeometry>
        </mxCell>
        <mxCell id="o9leCK19e-JIHgQ2QXZz-68" value="Integritási feltétel" style="shape=partialRectangle;html=1;whiteSpace=wrap;connectable=0;strokeColor=inherit;overflow=hidden;fillColor=none;top=0;left=0;bottom=0;right=0;pointerEvents=1;fontSize=16;" vertex="1" parent="o9leCK19e-JIHgQ2QXZz-65">
          <mxGeometry x="299" width="141" height="40" as="geometry">
            <mxRectangle width="141" height="40" as="alternateBounds" />
          </mxGeometry>
        </mxCell>
        <mxCell id="o9leCK19e-JIHgQ2QXZz-69" value="" style="shape=tableRow;horizontal=0;startSize=0;swimlaneHead=0;swimlaneBody=0;strokeColor=inherit;top=0;left=0;bottom=0;right=0;collapsible=0;dropTarget=0;fillColor=none;points=[[0,0.5],[1,0.5]];portConstraint=eastwest;fontSize=16;" vertex="1" parent="o9leCK19e-JIHgQ2QXZz-64">
          <mxGeometry y="70" width="440" height="40" as="geometry" />
        </mxCell>
        <mxCell id="o9leCK19e-JIHgQ2QXZz-70" value="&lt;u&gt;Rendszam&lt;/u&gt;" style="shape=partialRectangle;html=1;whiteSpace=wrap;connectable=0;strokeColor=inherit;overflow=hidden;fillColor=none;top=0;left=0;bottom=0;right=0;pointerEvents=1;fontSize=16;" vertex="1" parent="o9leCK19e-JIHgQ2QXZz-69">
          <mxGeometry width="150" height="40" as="geometry">
            <mxRectangle width="150" height="40" as="alternateBounds" />
          </mxGeometry>
        </mxCell>
        <mxCell id="o9leCK19e-JIHgQ2QXZz-71" value="VARCHAR" style="shape=partialRectangle;html=1;whiteSpace=wrap;connectable=0;strokeColor=inherit;overflow=hidden;fillColor=none;top=0;left=0;bottom=0;right=0;pointerEvents=1;fontSize=16;" vertex="1" parent="o9leCK19e-JIHgQ2QXZz-69">
          <mxGeometry x="150" width="149" height="40" as="geometry">
            <mxRectangle width="149" height="40" as="alternateBounds" />
          </mxGeometry>
        </mxCell>
        <mxCell id="o9leCK19e-JIHgQ2QXZz-72" value="&lt;span data-end=&quot;529&quot; data-start=&quot;514&quot;&gt;PRIMARY KEY&lt;/span&gt;, NOT NULL" style="shape=partialRectangle;html=1;whiteSpace=wrap;connectable=0;strokeColor=inherit;overflow=hidden;fillColor=none;top=0;left=0;bottom=0;right=0;pointerEvents=1;fontSize=16;" vertex="1" parent="o9leCK19e-JIHgQ2QXZz-69">
          <mxGeometry x="299" width="141" height="40" as="geometry">
            <mxRectangle width="141" height="40" as="alternateBounds" />
          </mxGeometry>
        </mxCell>
        <mxCell id="o9leCK19e-JIHgQ2QXZz-73" value="" style="shape=tableRow;horizontal=0;startSize=0;swimlaneHead=0;swimlaneBody=0;strokeColor=inherit;top=0;left=0;bottom=0;right=0;collapsible=0;dropTarget=0;fillColor=none;points=[[0,0.5],[1,0.5]];portConstraint=eastwest;fontSize=16;" vertex="1" parent="o9leCK19e-JIHgQ2QXZz-64">
          <mxGeometry y="110" width="440" height="40" as="geometry" />
        </mxCell>
        <mxCell id="o9leCK19e-JIHgQ2QXZz-74" value="Tipus" style="shape=partialRectangle;html=1;whiteSpace=wrap;connectable=0;strokeColor=inherit;overflow=hidden;fillColor=none;top=0;left=0;bottom=0;right=0;pointerEvents=1;fontSize=16;" vertex="1" parent="o9leCK19e-JIHgQ2QXZz-73">
          <mxGeometry width="150" height="40" as="geometry">
            <mxRectangle width="150" height="40" as="alternateBounds" />
          </mxGeometry>
        </mxCell>
        <mxCell id="o9leCK19e-JIHgQ2QXZz-75" value="VARCHAR" style="shape=partialRectangle;html=1;whiteSpace=wrap;connectable=0;strokeColor=inherit;overflow=hidden;fillColor=none;top=0;left=0;bottom=0;right=0;pointerEvents=1;fontSize=16;" vertex="1" parent="o9leCK19e-JIHgQ2QXZz-73">
          <mxGeometry x="150" width="149" height="40" as="geometry">
            <mxRectangle width="149" height="40" as="alternateBounds" />
          </mxGeometry>
        </mxCell>
        <mxCell id="o9leCK19e-JIHgQ2QXZz-76" value="NOT NULL" style="shape=partialRectangle;html=1;whiteSpace=wrap;connectable=0;strokeColor=inherit;overflow=hidden;fillColor=none;top=0;left=0;bottom=0;right=0;pointerEvents=1;fontSize=16;" vertex="1" parent="o9leCK19e-JIHgQ2QXZz-73">
          <mxGeometry x="299" width="141" height="40" as="geometry">
            <mxRectangle width="141" height="40" as="alternateBounds" />
          </mxGeometry>
        </mxCell>
        <mxCell id="o9leCK19e-JIHgQ2QXZz-77" style="shape=tableRow;horizontal=0;startSize=0;swimlaneHead=0;swimlaneBody=0;strokeColor=inherit;top=0;left=0;bottom=0;right=0;collapsible=0;dropTarget=0;fillColor=none;points=[[0,0.5],[1,0.5]];portConstraint=eastwest;fontSize=16;" vertex="1" parent="o9leCK19e-JIHgQ2QXZz-64">
          <mxGeometry y="150" width="440" height="40" as="geometry" />
        </mxCell>
        <mxCell id="o9leCK19e-JIHgQ2QXZz-78" value="Szin" style="shape=partialRectangle;html=1;whiteSpace=wrap;connectable=0;strokeColor=inherit;overflow=hidden;fillColor=none;top=0;left=0;bottom=0;right=0;pointerEvents=1;fontSize=16;" vertex="1" parent="o9leCK19e-JIHgQ2QXZz-77">
          <mxGeometry width="150" height="40" as="geometry">
            <mxRectangle width="150" height="40" as="alternateBounds" />
          </mxGeometry>
        </mxCell>
        <mxCell id="o9leCK19e-JIHgQ2QXZz-79" value="VARCHAR" style="shape=partialRectangle;html=1;whiteSpace=wrap;connectable=0;strokeColor=inherit;overflow=hidden;fillColor=none;top=0;left=0;bottom=0;right=0;pointerEvents=1;fontSize=16;" vertex="1" parent="o9leCK19e-JIHgQ2QXZz-77">
          <mxGeometry x="150" width="149" height="40" as="geometry">
            <mxRectangle width="149" height="40" as="alternateBounds" />
          </mxGeometry>
        </mxCell>
        <mxCell id="o9leCK19e-JIHgQ2QXZz-80" value="NOT NULL" style="shape=partialRectangle;html=1;whiteSpace=wrap;connectable=0;strokeColor=inherit;overflow=hidden;fillColor=none;top=0;left=0;bottom=0;right=0;pointerEvents=1;fontSize=16;" vertex="1" parent="o9leCK19e-JIHgQ2QXZz-77">
          <mxGeometry x="299" width="141" height="40" as="geometry">
            <mxRectangle width="141" height="40" as="alternateBounds" />
          </mxGeometry>
        </mxCell>
        <mxCell id="o9leCK19e-JIHgQ2QXZz-81" style="shape=tableRow;horizontal=0;startSize=0;swimlaneHead=0;swimlaneBody=0;strokeColor=inherit;top=0;left=0;bottom=0;right=0;collapsible=0;dropTarget=0;fillColor=none;points=[[0,0.5],[1,0.5]];portConstraint=eastwest;fontSize=16;" vertex="1" parent="o9leCK19e-JIHgQ2QXZz-64">
          <mxGeometry y="190" width="440" height="40" as="geometry" />
        </mxCell>
        <mxCell id="o9leCK19e-JIHgQ2QXZz-82" value="Kor" style="shape=partialRectangle;html=1;whiteSpace=wrap;connectable=0;strokeColor=inherit;overflow=hidden;fillColor=none;top=0;left=0;bottom=0;right=0;pointerEvents=1;fontSize=16;" vertex="1" parent="o9leCK19e-JIHgQ2QXZz-81">
          <mxGeometry width="150" height="40" as="geometry">
            <mxRectangle width="150" height="40" as="alternateBounds" />
          </mxGeometry>
        </mxCell>
        <mxCell id="o9leCK19e-JIHgQ2QXZz-83" value="INT" style="shape=partialRectangle;html=1;whiteSpace=wrap;connectable=0;strokeColor=inherit;overflow=hidden;fillColor=none;top=0;left=0;bottom=0;right=0;pointerEvents=1;fontSize=16;" vertex="1" parent="o9leCK19e-JIHgQ2QXZz-81">
          <mxGeometry x="150" width="149" height="40" as="geometry">
            <mxRectangle width="149" height="40" as="alternateBounds" />
          </mxGeometry>
        </mxCell>
        <mxCell id="o9leCK19e-JIHgQ2QXZz-84" value="NOT NULL, CHECK (&lt;code data-end=&quot;1234&quot; data-start=&quot;1229&quot;&gt;Kor&lt;/code&gt; &amp;gt;= 0)" style="shape=partialRectangle;html=1;whiteSpace=wrap;connectable=0;strokeColor=inherit;overflow=hidden;fillColor=none;top=0;left=0;bottom=0;right=0;pointerEvents=1;fontSize=16;" vertex="1" parent="o9leCK19e-JIHgQ2QXZz-81">
          <mxGeometry x="299" width="141" height="40" as="geometry">
            <mxRectangle width="141" height="40" as="alternateBounds" />
          </mxGeometry>
        </mxCell>
        <mxCell id="o9leCK19e-JIHgQ2QXZz-94" style="shape=tableRow;horizontal=0;startSize=0;swimlaneHead=0;swimlaneBody=0;strokeColor=inherit;top=0;left=0;bottom=0;right=0;collapsible=0;dropTarget=0;fillColor=none;points=[[0,0.5],[1,0.5]];portConstraint=eastwest;fontSize=16;" vertex="1" parent="o9leCK19e-JIHgQ2QXZz-64">
          <mxGeometry y="230" width="440" height="40" as="geometry" />
        </mxCell>
        <mxCell id="o9leCK19e-JIHgQ2QXZz-95" value="Ar" style="shape=partialRectangle;html=1;whiteSpace=wrap;connectable=0;strokeColor=inherit;overflow=hidden;fillColor=none;top=0;left=0;bottom=0;right=0;pointerEvents=1;fontSize=16;" vertex="1" parent="o9leCK19e-JIHgQ2QXZz-94">
          <mxGeometry width="150" height="40" as="geometry">
            <mxRectangle width="150" height="40" as="alternateBounds" />
          </mxGeometry>
        </mxCell>
        <mxCell id="o9leCK19e-JIHgQ2QXZz-96" value="DECIMAL" style="shape=partialRectangle;html=1;whiteSpace=wrap;connectable=0;strokeColor=inherit;overflow=hidden;fillColor=none;top=0;left=0;bottom=0;right=0;pointerEvents=1;fontSize=16;" vertex="1" parent="o9leCK19e-JIHgQ2QXZz-94">
          <mxGeometry x="150" width="149" height="40" as="geometry">
            <mxRectangle width="149" height="40" as="alternateBounds" />
          </mxGeometry>
        </mxCell>
        <mxCell id="o9leCK19e-JIHgQ2QXZz-97" value="NOT NULL, CHECK (&lt;code data-end=&quot;1327&quot; data-start=&quot;1323&quot;&gt;Ar&lt;/code&gt; &amp;gt; 0)" style="shape=partialRectangle;html=1;whiteSpace=wrap;connectable=0;strokeColor=inherit;overflow=hidden;fillColor=none;top=0;left=0;bottom=0;right=0;pointerEvents=1;fontSize=16;" vertex="1" parent="o9leCK19e-JIHgQ2QXZz-94">
          <mxGeometry x="299" width="141" height="40" as="geometry">
            <mxRectangle width="141" height="40" as="alternateBounds" />
          </mxGeometry>
        </mxCell>
        <mxCell id="o9leCK19e-JIHgQ2QXZz-98" style="shape=tableRow;horizontal=0;startSize=0;swimlaneHead=0;swimlaneBody=0;strokeColor=inherit;top=0;left=0;bottom=0;right=0;collapsible=0;dropTarget=0;fillColor=none;points=[[0,0.5],[1,0.5]];portConstraint=eastwest;fontSize=16;" vertex="1" parent="o9leCK19e-JIHgQ2QXZz-64">
          <mxGeometry y="270" width="440" height="70" as="geometry" />
        </mxCell>
        <mxCell id="o9leCK19e-JIHgQ2QXZz-99" value="Tulaj" style="shape=partialRectangle;html=1;whiteSpace=wrap;connectable=0;strokeColor=inherit;overflow=hidden;fillColor=none;top=0;left=0;bottom=0;right=0;pointerEvents=1;fontSize=16;" vertex="1" parent="o9leCK19e-JIHgQ2QXZz-98">
          <mxGeometry width="150" height="70" as="geometry">
            <mxRectangle width="150" height="70" as="alternateBounds" />
          </mxGeometry>
        </mxCell>
        <mxCell id="o9leCK19e-JIHgQ2QXZz-100" value="INT" style="shape=partialRectangle;html=1;whiteSpace=wrap;connectable=0;strokeColor=inherit;overflow=hidden;fillColor=none;top=0;left=0;bottom=0;right=0;pointerEvents=1;fontSize=16;" vertex="1" parent="o9leCK19e-JIHgQ2QXZz-98">
          <mxGeometry x="150" width="149" height="70" as="geometry">
            <mxRectangle width="149" height="70" as="alternateBounds" />
          </mxGeometry>
        </mxCell>
        <mxCell id="o9leCK19e-JIHgQ2QXZz-101" value="&lt;table&gt;&lt;tbody&gt;&lt;tr&gt;&lt;td data-end=&quot;1396&quot; data-start=&quot;1365&quot; class=&quot;&quot;&gt;&lt;/td&gt;&lt;/tr&gt;&lt;/tbody&gt;&lt;/table&gt;&lt;table&gt;&lt;tbody&gt;&lt;tr&gt;&lt;td data-end=&quot;1446&quot; data-start=&quot;1396&quot; class=&quot;&quot;&gt;&lt;span style=&quot;&quot; data-end=&quot;1413&quot; data-start=&quot;1398&quot;&gt;FOREIGN KEY&lt;/span&gt;&lt;b&gt; → Tulajdonos(&lt;/b&gt;&lt;code style=&quot;font-weight: bold;&quot; data-end=&quot;1433&quot; data-start=&quot;1427&quot;&gt;Tkod&lt;/code&gt;&lt;b&gt;), &lt;/b&gt;NOT NULL&lt;/td&gt;&lt;/tr&gt;&lt;/tbody&gt;&lt;/table&gt;" style="shape=partialRectangle;html=1;whiteSpace=wrap;connectable=0;strokeColor=inherit;overflow=hidden;fillColor=none;top=0;left=0;bottom=0;right=0;pointerEvents=1;fontSize=16;" vertex="1" parent="o9leCK19e-JIHgQ2QXZz-98">
          <mxGeometry x="299" width="141" height="70" as="geometry">
            <mxRectangle width="141" height="70" as="alternateBounds" />
          </mxGeometry>
        </mxCell>
      </root>
    </mxGraphModel>
  </diagram>
</mxfile>
